<?xml version="1.0" encoding="UTF-8" standalone="no"?>
<!-- Created with Inkscape (http://www.inkscape.org/) -->

<svg
   version="1.1"
   id="svg2295"
   xml:space="preserve"
   width="50"
   height="50"
   viewBox="0 0 682.66669 682.66669"
   xmlns="http://www.w3.org/2000/svg"
   xmlns:svg="http://www.w3.org/2000/svg"><defs
     id="defs2299"><clipPath
       clipPathUnits="userSpaceOnUse"
       id="clipPath2309"><path
         d="M 0,512 H 512 V 0 H 0 Z"
         id="path2307" /></clipPath></defs><g
     id="g2301"
     transform="matrix(1.3333333,0,0,-1.3333333,0,682.66667)"><g
       id="g2303"><g
         id="g2305"
         clip-path="url(#clipPath2309)"><g
           id="g2311"
           transform="translate(180,80)"><path
             d="m 0,0 c 0,-33.137 -35.817,-60 -80,-60 -44.183,0 -80,26.863 -80,60 0,33.137 35.817,60 80,60 C -35.817,60 0,33.137 0,0 Z"
             style="fill:none;stroke:#fff;stroke-width:40;stroke-linecap:round;stroke-linejoin:round;stroke-miterlimit:10;stroke-dasharray:none;stroke-opacity:1"
             id="path2313" /></g><g
           id="g2315"
           transform="translate(492,120)"><path
             d="m 0,0 c 0,-33.137 -35.817,-60 -80,-60 -44.183,0 -80,26.863 -80,60 0,33.137 35.817,60 80,60 C -35.817,60 0,33.137 0,0 Z"
             style="fill:none;stroke:#fff;stroke-width:40;stroke-linecap:round;stroke-linejoin:round;stroke-miterlimit:10;stroke-dasharray:none;stroke-opacity:1"
             id="path2317" /></g><g
           id="g2319"
           transform="translate(180,80)"><path
             d="m 0,0 v 341.994 c 0,20.173 15.021,37.189 35.039,39.691 l 232,30 C 290.913,414.669 312,396.054 312,371.994 V 39.999"
             style="fill:none;stroke:#fff;stroke-width:40;stroke-linecap:round;stroke-linejoin:round;stroke-miterlimit:10;stroke-dasharray:none;stroke-opacity:1"
             id="path2321" /></g><g
           id="g2323"
           transform="translate(412,366.3677)"><path
             d="M 0,0 -152,-20"
             style="fill:none;stroke:#fff;stroke-width:40;stroke-linecap:round;stroke-linejoin:round;stroke-miterlimit:10;stroke-dasharray:none;stroke-opacity:1"
             id="path2325" /></g></g></g></g></svg>
